<svg xmlns="http://www.w3.org/2000/svg" xmlns:xlink="http://www.w3.org/1999/xlink" width="3024" zoomAndPan="magnify" viewBox="0 0 2268 2268.00001" height="3024" preserveAspectRatio="xMidYMid meet" version="1.0"><defs><g></g><clipPath id="1d0792a6c2"><rect x="0" width="2136" y="0" height="2136"></rect></clipPath></defs><g transform="matrix(1, 0, 0, 1, 66, 30)"><g clip-path="url(#1d0792a6c2)"><g fill="#059497" fill-opacity="1"><g transform="translate(346.897496, 2105.964094)"><g><path d="M 11.90625 -41.546875 L 21.515625 -41.546875 L 26.421875 -19.8125 C 29.484375 -16.507812 34.109375 -13.742188 40.296875 -11.515625 C 46.484375 -9.296875 52.890625 -8.1875 59.515625 -8.1875 C 80.398438 -8.1875 90.84375 -16.140625 90.84375 -32.046875 C 90.84375 -37.035156 88.859375 -41.25 84.890625 -44.6875 C 80.929688 -48.125 74.691406 -51.191406 66.171875 -53.890625 C 53.648438 -57.722656 44.640625 -60.835938 39.140625 -63.234375 C 33.648438 -65.628906 29.007812 -68.441406 25.21875 -71.671875 C 21.4375 -74.910156 18.414062 -78.835938 16.15625 -83.453125 C 13.90625 -88.066406 12.78125 -93.742188 12.78125 -100.484375 C 12.78125 -112.421875 17.164062 -121.503906 25.9375 -127.734375 C 34.707031 -133.972656 47.535156 -137.09375 64.421875 -137.09375 C 76.648438 -137.09375 90.191406 -135.640625 105.046875 -132.734375 L 105.046875 -100.484375 L 95.328125 -100.484375 L 90.40625 -119.09375 C 82.976562 -124.082031 74.316406 -126.578125 64.421875 -126.578125 C 55.472656 -126.578125 48.59375 -125.039062 43.78125 -121.96875 C 38.976562 -118.90625 36.578125 -114.207031 36.578125 -107.875 C 36.578125 -103.351562 38.578125 -99.492188 42.578125 -96.296875 C 46.585938 -93.097656 52.847656 -90.25 61.359375 -87.75 C 78.035156 -82.695312 89.484375 -78.300781 95.703125 -74.5625 C 101.929688 -70.820312 106.679688 -66.1875 109.953125 -60.65625 C 113.234375 -55.132812 114.875 -48.628906 114.875 -41.140625 C 114.875 -12.367188 96.566406 2.015625 59.953125 2.015625 C 51.578125 2.015625 43.039062 1.359375 34.34375 0.046875 C 25.644531 -1.265625 18.164062 -3 11.90625 -5.15625 Z M 11.90625 -41.546875 "></path></g></g><g transform="translate(471.263108, 2105.964094)"><g><path d="M 3.828125 -7.375 L 22.609375 -10.109375 L 22.609375 -125.5625 L 3.828125 -128.1875 L 3.828125 -135.578125 L 128.515625 -135.578125 L 128.515625 -101.09375 L 118.578125 -101.09375 L 115.09375 -123.03125 C 106.9375 -123.976562 95.140625 -124.453125 79.703125 -124.453125 L 57 -124.453125 L 57 -74.703125 L 95.328125 -74.703125 L 98.703125 -89.671875 L 108.421875 -89.671875 L 108.421875 -48.015625 L 98.703125 -48.015625 L 95.328125 -63.390625 L 57 -63.390625 L 57 -11.125 L 84.625 -11.125 C 103.40625 -11.125 115.707031 -11.660156 121.53125 -12.734375 L 127.75 -37.8125 L 137.6875 -37.8125 L 135.609375 0 L 3.828125 0 Z M 3.828125 -7.375 "></path></g></g><g transform="translate(620.414495, 2105.964094)"><g><path d="M 3.828125 -7.375 L 22.609375 -10.109375 L 22.609375 -125.5625 L 3.828125 -128.1875 L 3.828125 -135.578125 L 128.515625 -135.578125 L 128.515625 -101.09375 L 118.578125 -101.09375 L 115.09375 -123.03125 C 106.9375 -123.976562 95.140625 -124.453125 79.703125 -124.453125 L 57 -124.453125 L 57 -74.703125 L 95.328125 -74.703125 L 98.703125 -89.671875 L 108.421875 -89.671875 L 108.421875 -48.015625 L 98.703125 -48.015625 L 95.328125 -63.390625 L 57 -63.390625 L 57 -11.125 L 84.625 -11.125 C 103.40625 -11.125 115.707031 -11.660156 121.53125 -12.734375 L 127.75 -37.8125 L 137.6875 -37.8125 L 135.609375 0 L 3.828125 0 Z M 3.828125 -7.375 "></path></g></g><g transform="translate(769.565881, 2105.964094)"><g><path d="M 114.328125 -67.734375 C 114.328125 -87.273438 110.46875 -101.613281 102.75 -110.75 C 95.03125 -119.882812 82.472656 -124.453125 65.078125 -124.453125 L 57 -124.453125 L 57 -11.53125 C 63.988281 -10.988281 70.320312 -10.71875 76 -10.71875 C 85.457031 -10.71875 92.9375 -12.601562 98.4375 -16.375 C 103.9375 -20.15625 107.957031 -26.070312 110.5 -34.125 C 113.050781 -42.175781 114.328125 -53.378906 114.328125 -67.734375 Z M 73.484375 -135.578125 C 99.765625 -135.578125 119.179688 -130.066406 131.734375 -119.046875 C 144.296875 -108.023438 150.578125 -91.191406 150.578125 -68.546875 C 150.578125 -45.296875 144.570312 -27.988281 132.5625 -16.625 C 120.550781 -5.269531 102.390625 0.40625 78.078125 0.40625 L 29.046875 0 L 3.9375 0 L 3.9375 -7.375 L 22.71875 -10.109375 L 22.71875 -125.5625 L 3.9375 -128.1875 L 3.9375 -135.578125 Z M 73.484375 -135.578125 "></path></g></g></g><g fill="#059497" fill-opacity="1"><g transform="translate(945.052521, 2105.964094)"><g><path d="M 95.875 -102.109375 C 95.875 -109.992188 94.035156 -115.6875 90.359375 -119.1875 C 86.679688 -122.695312 80.617188 -124.453125 72.171875 -124.453125 L 57 -124.453125 L 57 -77.234375 L 73.046875 -77.234375 C 80.835938 -77.234375 86.585938 -79.117188 90.296875 -82.890625 C 94.015625 -86.671875 95.875 -93.078125 95.875 -102.109375 Z M 106.90625 -39.53125 C 106.90625 -48.488281 104.484375 -55.160156 99.640625 -59.546875 C 94.796875 -63.929688 86.878906 -66.125 75.890625 -66.125 L 57 -66.125 L 57 -11.125 C 67.476562 -10.71875 75.738281 -10.515625 81.78125 -10.515625 C 90.300781 -10.515625 96.617188 -12.90625 100.734375 -17.6875 C 104.847656 -22.476562 106.90625 -29.757812 106.90625 -39.53125 Z M 3.71875 0 L 3.71875 -7.375 L 22.609375 -10.109375 L 22.609375 -125.5625 L 3.71875 -128.1875 L 3.71875 -135.578125 L 74.796875 -135.578125 C 94.234375 -135.578125 108.570312 -133.164062 117.8125 -128.34375 C 127.0625 -123.519531 131.6875 -115.71875 131.6875 -104.9375 C 131.6875 -96.851562 128.957031 -89.878906 123.5 -84.015625 C 118.039062 -78.148438 110.722656 -74.304688 101.546875 -72.484375 C 115.160156 -71.203125 125.460938 -67.78125 132.453125 -62.21875 C 139.441406 -56.664062 142.9375 -49.101562 142.9375 -39.53125 C 142.9375 -26.382812 137.691406 -16.40625 127.203125 -9.59375 C 116.722656 -2.789062 101.691406 0.609375 82.109375 0.609375 L 32.328125 0 Z M 3.71875 0 "></path></g></g><g transform="translate(1094.203907, 2105.964094)"><g><path d="M 47.609375 -9.09375 L 58.859375 -6.671875 L 58.859375 0 L 4.90625 0 L 4.90625 -6.671875 L 16.046875 -9.09375 L 16.046875 -85.9375 L 5.5625 -88.359375 L 5.5625 -95.03125 L 47.609375 -95.03125 Z M 14.953125 -128.1875 C 14.953125 -132.570312 16.609375 -136.242188 19.921875 -139.203125 C 23.234375 -142.171875 27.1875 -143.65625 31.78125 -143.65625 C 36.4375 -143.65625 40.382812 -142.15625 43.625 -139.15625 C 46.863281 -136.15625 48.484375 -132.5 48.484375 -128.1875 C 48.484375 -123.945312 46.878906 -120.289062 43.671875 -117.21875 C 40.472656 -114.15625 36.507812 -112.625 31.78125 -112.625 C 27.113281 -112.625 23.140625 -114.125 19.859375 -117.125 C 16.585938 -120.125 14.953125 -123.8125 14.953125 -128.1875 Z M 14.953125 -128.1875 "></path></g></g><g transform="translate(1156.332119, 2105.964094)"><g><path d="M 103.296875 -48.015625 C 103.296875 -30.960938 99.34375 -18.359375 91.4375 -10.203125 C 83.539062 -2.054688 71.476562 2.015625 55.25 2.015625 C 39.53125 2.015625 27.8125 -2.109375 20.09375 -10.359375 C 12.375 -18.617188 8.515625 -31.171875 8.515625 -48.015625 C 8.515625 -64.796875 12.425781 -77.25 20.25 -85.375 C 28.082031 -93.5 40.039062 -97.5625 56.125 -97.5625 C 72.351562 -97.5625 84.269531 -93.363281 91.875 -84.96875 C 99.488281 -76.582031 103.296875 -64.265625 103.296875 -48.015625 Z M 71.296875 -48.015625 C 71.296875 -62.847656 70.113281 -73.109375 67.75 -78.796875 C 65.382812 -84.492188 61.289062 -87.34375 55.46875 -87.34375 C 49.863281 -87.34375 45.96875 -84.613281 43.78125 -79.15625 C 41.601562 -73.695312 40.515625 -63.316406 40.515625 -48.015625 C 40.515625 -32.453125 41.625 -21.90625 43.84375 -16.375 C 46.0625 -10.851562 49.9375 -8.09375 55.46875 -8.09375 C 61.21875 -8.09375 65.289062 -11.003906 67.6875 -16.828125 C 70.09375 -22.660156 71.296875 -33.054688 71.296875 -48.015625 Z M 71.296875 -48.015625 "></path></g></g><g transform="translate(1268.141064, 2105.964094)"><g><path d="M 47.390625 -86.734375 L 54.8125 -90.28125 C 65 -95.132812 74.132812 -97.5625 82.21875 -97.5625 C 94.445312 -97.5625 102.601562 -93.445312 106.6875 -85.21875 C 121.601562 -93.445312 134.191406 -97.5625 144.453125 -97.5625 C 162.953125 -97.5625 172.203125 -88.226562 172.203125 -69.5625 L 172.203125 -9.09375 L 182.453125 -6.671875 L 182.453125 0 L 131.46875 0 L 131.46875 -6.671875 L 140.640625 -9.09375 L 140.640625 -65.609375 C 140.640625 -71.273438 139.457031 -75.691406 137.09375 -78.859375 C 134.726562 -82.023438 131.140625 -83.609375 126.328125 -83.609375 C 120.941406 -83.609375 115.117188 -82.191406 108.859375 -79.359375 C 109.585938 -76.523438 109.953125 -73.257812 109.953125 -69.5625 L 109.953125 -9.09375 L 120.21875 -6.671875 L 120.21875 0 L 69.234375 0 L 69.234375 -6.671875 L 78.40625 -9.09375 L 78.40625 -65.609375 C 78.40625 -71.273438 77.21875 -75.691406 74.84375 -78.859375 C 72.476562 -82.023438 68.894531 -83.609375 64.09375 -83.609375 C 59.289062 -83.609375 53.796875 -82.296875 47.609375 -79.671875 L 47.609375 -9.09375 L 57 -6.671875 L 57 0 L 6 0 L 6 -6.671875 L 16.046875 -9.09375 L 16.046875 -85.9375 L 6 -88.359375 L 6 -95.03125 L 45.859375 -95.03125 Z M 47.390625 -86.734375 "></path></g></g><g transform="translate(1454.416513, 2105.964094)"><g><path d="M 53.9375 -97.359375 C 67.84375 -97.359375 77.90625 -93.921875 84.125 -87.046875 C 90.351562 -80.171875 93.46875 -69.488281 93.46875 -55 L 93.46875 -46.703125 L 39.640625 -46.703125 L 39.640625 -45.09375 C 39.640625 -35.050781 40.507812 -27.90625 42.25 -23.65625 C 44 -19.40625 46.835938 -16.164062 50.765625 -13.9375 C 54.703125 -11.71875 60.09375 -10.609375 66.9375 -10.609375 C 73.34375 -10.609375 81.421875 -11.585938 91.171875 -13.546875 L 91.171875 -5.765625 C 87.171875 -3.535156 81.984375 -1.695312 75.609375 -0.25 C 69.242188 1.195312 63.039062 1.921875 57 1.921875 C 40.1875 1.921875 27.753906 -2.132812 19.703125 -10.25 C 11.660156 -18.375 7.640625 -30.960938 7.640625 -48.015625 C 7.640625 -64.597656 11.476562 -76.96875 19.15625 -85.125 C 26.84375 -93.28125 38.4375 -97.359375 53.9375 -97.359375 Z M 52.734375 -87.140625 C 48.367188 -87.140625 45.113281 -84.945312 42.96875 -80.5625 C 40.820312 -76.1875 39.75 -68.441406 39.75 -57.328125 L 63.546875 -57.328125 C 63.546875 -66.359375 63.21875 -72.707031 62.5625 -76.375 C 61.90625 -80.050781 60.796875 -82.765625 59.234375 -84.515625 C 57.671875 -86.265625 55.503906 -87.140625 52.734375 -87.140625 Z M 52.734375 -87.140625 "></path></g></g></g><g fill="#059497" fill-opacity="1"><g transform="translate(1553.668771, 2105.964094)"><g><path d="M 80.03125 -5.359375 C 75.957031 -2.929688 72.828125 -1.328125 70.640625 -0.546875 C 68.460938 0.222656 65.988281 0.84375 63.21875 1.3125 C 60.457031 1.78125 57.398438 2.015625 54.046875 2.015625 C 38.910156 2.015625 27.628906 -2.007812 20.203125 -10.0625 C 12.773438 -18.113281 9.0625 -30.5 9.0625 -47.21875 C 9.0625 -63.65625 13.046875 -76.15625 21.015625 -84.71875 C 28.984375 -93.28125 40.539062 -97.5625 55.6875 -97.5625 C 63.625 -97.5625 71.628906 -96.648438 79.703125 -94.828125 C 79.273438 -97.054688 79.0625 -102.28125 79.0625 -110.5 L 79.0625 -134.5625 L 68.578125 -136.984375 L 68.578125 -143.65625 L 110.609375 -143.65625 L 110.609375 -9.09375 L 121.859375 -6.671875 L 121.859375 0 L 82.328125 0 Z M 41.0625 -48.015625 C 41.0625 -35.410156 42.769531 -25.789062 46.1875 -19.15625 C 49.601562 -12.519531 54.515625 -9.203125 60.921875 -9.203125 C 66.753906 -9.203125 72.800781 -10.648438 79.0625 -13.546875 L 79.0625 -85.125 C 73.375 -86.539062 67.617188 -87.25 61.796875 -87.25 C 55.242188 -87.25 50.148438 -83.925781 46.515625 -77.28125 C 42.878906 -70.644531 41.0625 -60.890625 41.0625 -48.015625 Z M 41.0625 -48.015625 "></path></g></g></g><path fill="#196d66" d="M 1518.800781 1673.734375 C 1518.800781 1673.734375 1521.683594 1673.753906 1521.683594 1673.753906 C 1520.722656 1673.753906 1519.761719 1673.753906 1518.800781 1673.734375 Z M 1476.429688 694.453125 C 1477.046875 694.476562 1477.6875 694.476562 1478.308594 694.476562 C 1478.308594 694.476562 1476.429688 694.453125 1476.429688 694.453125 Z M 1418.261719 1400.507812 C 1418.261719 1400.507812 1418.453125 1400.53125 1418.539062 1400.550781 L 1425.90625 1400.679688 C 1423.109375 1400.613281 1420.523438 1400.550781 1418.261719 1400.507812 Z M 1418.261719 1400.507812 " fill-opacity="1" fill-rule="nonzero"></path><path fill="#e3942e" d="M 912.730469 1231.042969 C 911.40625 1229.421875 910.511719 1226.242188 910.234375 1224.085938 C 913.265625 1224.492188 913.585938 1228.523438 912.730469 1231.042969 Z M 912.730469 1231.042969 " fill-opacity="1" fill-rule="nonzero"></path><path fill="#e2932d" d="M 1425.90625 1400.679688 L 1418.539062 1400.550781 C 1418.539062 1400.550781 1418.347656 1400.53125 1418.261719 1400.507812 C 1420.523438 1400.550781 1423.109375 1400.59375 1425.90625 1400.679688 Z M 1425.90625 1400.679688 " fill-opacity="1" fill-rule="nonzero"></path><path fill="#e2932d" d="M 1478.308594 694.453125 C 1477.6875 694.476562 1477.046875 694.476562 1476.429688 694.453125 Z M 1478.308594 694.453125 " fill-opacity="1" fill-rule="nonzero"></path><path fill="#e3942e" d="M 1570.394531 570.074219 C 1460.699219 373.628906 1307.882812 202.285156 1126.9375 68.597656 C 1109.070312 55.640625 1090.859375 43.214844 1071.734375 31.070312 C 1070.285156 30.175781 1068.832031 30.21875 1067.445312 31.15625 C 1041.894531 48.9375 1016.855469 67.464844 992.351562 86.65625 C 787.964844 246.898438 619.886719 455.574219 513.011719 692.703125 C 406.964844 928.042969 332.789062 1234.03125 441.800781 1480.171875 C 549.40625 1723.148438 812 1904.566406 1081.425781 1894.214844 C 1098.160156 1893.402344 1124.800781 1892.355469 1140.9375 1891.523438 L 1141.195312 1891.480469 C 1405.582031 1860.636719 1648.136719 1664.382812 1723.890625 1407.1875 C 1798.855469 1156.398438 1696.71875 792.472656 1570.371094 570.09375 Z M 915.910156 1531.1875 C 915.910156 1531.1875 915.699219 1531.164062 915.613281 1531.144531 C 918.046875 1531.1875 920.820312 1531.25 923.808594 1531.316406 Z M 980.011719 773.582031 C 979.351562 773.582031 978.667969 773.582031 978.007812 773.5625 L 980.011719 773.5625 Z M 1023.472656 1824.328125 L 1026.566406 1824.328125 Z M 1295.972656 489.109375 C 1295.886719 488.320312 1295.800781 487.527344 1295.695312 486.78125 C 1295.800781 487.484375 1295.910156 488.210938 1295.972656 488.917969 L 1295.972656 489.128906 Z M 1295.972656 489.109375 " fill-opacity="1" fill-rule="nonzero"></path><path fill="#c1bcbb" d="M 1537.179688 608.921875 C 1430.707031 418.238281 1282.375 251.933594 1106.722656 122.152344 C 1089.386719 109.582031 1071.714844 97.519531 1053.144531 85.738281 C 1051.734375 84.882812 1050.324219 84.90625 1048.980469 85.800781 C 1024.175781 103.070312 999.886719 121.042969 976.085938 139.679688 C 777.699219 295.226562 614.550781 497.773438 510.8125 727.945312 C 407.882812 956.386719 335.882812 1253.394531 441.695312 1492.316406 C 546.160156 1728.164062 801.027344 1904.269531 1062.558594 1894.214844 C 1078.800781 1893.425781 1104.652344 1892.421875 1120.339844 1891.609375 L 1120.597656 1891.566406 C 1377.214844 1861.640625 1612.679688 1671.128906 1686.195312 1421.492188 C 1758.960938 1178.0625 1659.8125 824.8125 1537.179688 608.941406 Z M 901.867188 1541.859375 C 901.867188 1541.859375 901.671875 1541.839844 901.566406 1541.816406 C 903.9375 1541.859375 906.625 1541.921875 909.527344 1541.988281 Z M 964.109375 806.476562 C 963.46875 806.476562 962.808594 806.476562 962.167969 806.457031 L 964.109375 806.457031 Z M 1006.289062 1826.398438 L 1009.300781 1826.398438 Z M 1270.804688 530.328125 C 1270.742188 529.558594 1270.636719 528.789062 1270.527344 528.0625 C 1270.636719 528.746094 1270.71875 529.453125 1270.804688 530.132812 Z M 1270.804688 530.328125 " fill-opacity="1" fill-rule="nonzero"></path><path fill="#196d66" d="M 1104.777344 1904.972656 C 1089.730469 1905.761719 1064.90625 1906.746094 1049.324219 1907.492188 C 798.210938 1917.160156 553.503906 1748.058594 453.199219 1521.625 C 351.59375 1292.222656 420.734375 1007.085938 519.5625 787.734375 C 619.164062 566.722656 775.796875 372.261719 966.289062 222.90625 C 989.105469 204.996094 1012.457031 187.75 1036.257812 171.164062 C 1037.582031 170.289062 1038.90625 170.265625 1040.273438 171.097656 C 1058.09375 182.390625 1075.085938 194.003906 1091.738281 206.0625 C 1260.367188 330.660156 1402.785156 490.347656 1505.03125 673.429688 C 1622.777344 880.675781 1717.976562 1219.859375 1648.09375 1453.574219 C 1577.480469 1693.285156 1351.429688 1876.175781 1105.035156 1904.929688 L 1104.800781 1904.929688 Z M 1249.246094 597.78125 C 1223.332031 379.605469 933.074219 335.71875 843.828125 536.261719 C 820.390625 588.964844 821.308594 655.433594 844.980469 707.089844 C 947.78125 925.351562 1268.691406 841.035156 1249.289062 598.207031 Z M 894.757812 1569.140625 C 910.875 1569.394531 942.445312 1570.183594 954.910156 1570.3125 C 955.039062 1445.207031 954.71875 903.492188 954.804688 863.105469 C 708.792969 860.738281 528.804688 1109.203125 617.5625 1343.128906 C 661.449219 1461.214844 769.671875 1549.542969 894.523438 1569.117188 L 894.757812 1569.160156 Z M 1042.449219 1135.074219 C 1038.949219 1135.074219 1003.984375 1134.96875 995.230469 1135.007812 C 995.125 1135.007812 995.230469 1178.148438 995.210938 1243.148438 C 995.105469 1364.199219 995.402344 1828.492188 995.296875 1842.34375 C 1119.847656 1843.902344 1237.871094 1777.472656 1302.289062 1672.152344 C 1437.644531 1455.621094 1295.84375 1164.507812 1042.683594 1135.09375 L 1042.449219 1135.09375 Z M 1042.449219 1135.074219 " fill-opacity="1" fill-rule="nonzero"></path><path fill="#e3942e" d="M 389.226562 1399.675781 C 387.902344 1398.054688 387.007812 1394.871094 386.730469 1392.71875 C 389.761719 1393.121094 390.078125 1397.15625 389.226562 1399.675781 Z M 389.226562 1399.675781 " fill-opacity="1" fill-rule="nonzero"></path><path fill="#e2932d" d="M 895.035156 1569.183594 C 758.742188 1547.429688 646.207031 1448.109375 608.53125 1315.679688 C 590.386719 1251.898438 590.515625 1184.894531 608.53125 1121.625 C 652.570312 967.144531 794.964844 862.765625 954.78125 863.0625 L 954.890625 1570.3125 L 895.015625 1569.183594 Z M 895.035156 1569.183594 " fill-opacity="1" fill-rule="nonzero"></path><path fill="#059497" d="M 1042.171875 1135.050781 C 1234.390625 1159.238281 1372.539062 1331.199219 1352.453125 1524.421875 C 1333.5625 1706.179688 1177.71875 1843.859375 995.296875 1842.40625 L 995.191406 1135.050781 Z M 1042.171875 1135.050781 " fill-opacity="1" fill-rule="nonzero"></path><path fill="#c1bcbb" d="M 1249.269531 597.972656 C 1262.417969 724.464844 1164.910156 831.34375 1041.894531 833.289062 C 917.46875 835.230469 817.890625 729.675781 827.242188 603.839844 C 832.75 529.578125 877.808594 463.898438 940.140625 431.496094 C 1012.203125 394.035156 1096.539062 400.375 1160.234375 445.753906 C 1211.039062 481.957031 1242.757812 535.195312 1249.269531 597.972656 Z M 1249.269531 597.972656 " fill-opacity="1" fill-rule="nonzero"></path></g></g></svg>